<svg xmlns="http://www.w3.org/2000/svg" width="256" height="256"><path fill="#1976D2" fill-opacity=".016" fill-rule="evenodd" d="M0 128.004v128.004l128.25-.254 128.25-.254.254-127.75L257.008 0H0v128.004m.485.496c0 70.4.119 99.053.265 63.672.146-35.38.146-92.98 0-128C.604 29.153.485 58.1.485 128.5"/><path fill="#1976D2" fill-opacity=".143" fill-rule="evenodd" d="M113.5.689C93.041 3.34 73.177 10.804 56 22.293 46.364 28.739 28.739 46.364 22.293 56 12.785 70.214 6.058 86.098 2.387 103c-2.586 11.904-2.586 38.096 0 50 5.605 25.806 16.952 46.621 35.484 65.095 18.555 18.496 37.842 29.199 63.129 35.034 12.306 2.84 35.761 3.582 47.636 1.507 48.17-8.417 87.195-42.389 101.799-88.62 11.86-37.545 6.197-75.831-16.195-109.486-19.064-28.652-50.525-49.035-84.95-55.039C141.505.134 121.28-.32 113.5.689M.385 128c0 6.875.16 9.688.355 6.25.196-3.437.196-9.062 0-12.5-.195-3.437-.355-.625-.355 6.25"/><path fill="#1976D2" fill-opacity=".172" fill-rule="evenodd" d="M128 17.724v17.983l-7.55.638c-38.985 3.295-71.283 30.602-81.719 69.09-1.778 6.556-2.187 10.777-2.187 22.565 0 11.788.409 16.009 2.187 22.565 10.436 38.488 42.734 65.795 81.719 69.09l7.55.638v35.965l8.25-.708c32.635-2.804 59.049-14.832 81.305-37.024 25.298-25.226 37.843-55.235 37.843-90.526 0-35.309-12.654-65.594-37.814-90.5C195.014 15.158 168.88 3.254 136.25.45L128-.258v17.982m-3.5 47.431c-3.213 1.757-4.5 3.982-4.504 7.786-.003 3.295-.35 3.702-4.669 5.478-5.515 2.269-11.355 7.817-14.514 13.79-1.847 3.492-2.273 5.903-2.291 12.951-.02 8.048.193 8.966 3.017 12.987 3.638 5.182 10.533 10.57 19.711 15.406l6.75 3.556v-18.048l-5.382-3.442c-8.688-5.558-10.283-9.308-6.948-16.336 1.831-3.859 6.559-7.273 10.08-7.279C127.976 92 128 91.851 128 78c0-7.7-.338-13.986-.75-13.97-.412.017-1.65.523-2.75 1.125m-24.176 79.43c-2.363 2.363-2.542 3.114-2.087 8.779.858 10.688 7.672 20.343 17.09 24.217 4.167 1.714 4.666 2.258 4.669 5.087.006 4.543.87 6.211 4.076 7.869 1.556.805 3.076 1.463 3.378 1.463.303 0 .55-6.3.55-14 0-13.851-.024-14-2.25-14.004-5.584-.009-11.75-7.08-11.75-13.474 0-3.511-4.979-8.522-8.469-8.522-1.486 0-3.741 1.119-5.207 2.585"/><path fill="#1976D2" fill-opacity=".214" fill-rule="evenodd" d="M119.902 37.045c-11.682 1.041-19.544 3.292-31.54 9.031-19.166 9.169-32.998 22.982-42.344 42.286-7.442 15.371-8.484 20.238-8.484 39.638s1.042 24.267 8.484 39.638c14.488 29.926 41.808 48.435 75.854 51.391 26.781 2.326 50.038-6.123 69.973-25.42 37.542-36.338 37.274-95.568-.595-131.748C177.537 48.76 160.155 40.009 142 37.068c-7.129-1.155-9.371-1.157-22.098-.023m1.687 30.032c-1.487 1.767-2.589 4.315-2.589 5.986 0 2.371-.637 3.176-3.44 4.347-5.079 2.123-12.383 9.308-15.297 15.05-1.685 3.318-2.712 7.26-3.007 11.54-.395 5.718-.102 7.162 2.435 12 3.497 6.668 11.657 13.141 25.845 20.5 5.302 2.75 11.223 6.531 13.158 8.401 3.054 2.953 3.445 3.858 2.958 6.856-.733 4.515-3.008 7.879-6.956 10.287-8.5 5.183-18.376-.389-20.13-11.357-.917-5.733-3.904-8.687-8.786-8.687-2.83 0-4.566.695-6.457 2.586-2.339 2.339-2.536 3.13-2.066 8.312.291 3.211 1.628 7.914 3.042 10.705 2.88 5.685 10.199 12.872 15.261 14.987 2.803 1.171 3.44 1.976 3.44 4.347 0 4.462 4.384 9.063 8.634 9.063 4.659 0 8.366-3.695 8.366-8.337 0-3.16.428-3.638 5.464-6.102 10.461-5.118 16.913-15.729 16.801-27.629-.103-10.986-6.365-18.138-25.251-28.843-14.9-8.445-18.015-11.203-18.01-15.943.01-9.978 11.226-16.352 19.692-11.19 4.198 2.56 6.096 5.608 7.212 11.582 1.532 8.198 7.992 11.033 13.786 6.048 2.387-2.053 2.78-3.1 2.632-7.013-.424-11.202-6.92-21.27-16.862-26.134-5.036-2.464-5.464-2.942-5.464-6.102 0-7.869-9.345-11.28-14.411-5.26"/></svg>